<svg width="233" height="208" fill="none" xmlns="http://www.w3.org/2000/svg"><g filter="url('#filter0_df_9065_1425')"><path d="M180.877 47.668c13.574 8.77 10.675 22.085 12.95 37.19 1.819 12.085 0 31.24 0 31.24s-3.847 17.386-12.95 17.851c-9.468.484-14.569-17.851-14.569-17.851-12.137-3.253-16.418 10.165-25.9 17.851-13.425 10.884-14.861 38.81-30.755 31.24-14.593-6.95 11.291-27.702 0-38.678-15.946-15.499-51.8 26.777-51.8 26.777s0 19.339-14.568 0c-14.569-19.339 14.568-37.19 14.568-37.19v-43.14S70.527 43.586 88.61 37.254c19.35-6.776 31.182 8.643 51.799 10.413 15.736 1.351 27.54-8.353 40.469 0Z" fill="url('#paint0_radial_9065_1425')"/></g><defs><radialGradient id="paint0_radial_9065_1425" cx="0" cy="0" r="1" gradientUnits="userSpaceOnUse" gradientTransform="rotate(-167.619 84.911 57.188) scale(321.397 201.494)"><stop stop-color="#C2D45A"/><stop offset="1" stop-color="#3AB044"/></radialGradient><filter id="filter0_df_9065_1425" x=".922" y=".323" width="231.996" height="207.495" filterUnits="userSpaceOnUse" color-interpolation-filters="sRGB"><feFlood flood-opacity="0" result="BackgroundImageFix"/><feColorMatrix in="SourceAlpha" values="0 0 0 0 0 0 0 0 0 0 0 0 0 0 0 0 0 0 127 0" result="hardAlpha"/><feOffset dy="3.063"/><feGaussianBlur stdDeviation="19.142"/><feComposite in2="hardAlpha" operator="out"/><feColorMatrix values="0 0 0 0 0 0 0 0 0 0 0 0 0 0 0 0 0 0 0.25 0"/><feBlend in2="BackgroundImageFix" result="effect1_dropShadow_9065_1425"/><feBlend in="SourceGraphic" in2="effect1_dropShadow_9065_1425" result="shape"/><feGaussianBlur stdDeviation="1.914" result="effect2_foregroundBlur_9065_1425"/></filter></defs></svg>