<svg width="380" height="278" fill="none" xmlns="http://www.w3.org/2000/svg"><g filter="url('#filter0_df_9065_1421')"><path d="M125.485 139.422c-6.407 3.286-8.369 10.198-15.564 9.888-4.521-.195-10.623-4.627-10.623-4.627s-4.27 6.555-7.045 10.729c-6.283 9.448-11.354 13.82-16.404 23.981-6.655 13.388-2.389 24.261-10.513 36.811-5.966 9.216-9.584 23.3-19.98 19.775-10.132-3.436-6.523-16.196-5.052-26.924 1.471-10.727 10.513-36.811 10.513-36.811 6.1-4.628 22.084-15.989 32.601-19.355 8.414-2.694 10.795-26.645 10.934-38.284 0 0 5.266 2.143 8.834 2.523 18.242 1.942 13.555-25.93 26.92-38.496 5.926-5.572 9.447-8.62 16.406-12.833 9.108-5.514 14.623-11.117 25.24-10.31 4.77.363 11.779 3.364 11.779 3.364s21.086-18.863 37.86-21.038c7.336-.952 18.931.629 18.931.629l30.92-2.318 10.309 14.092c-2.6 7.543-20.404-1.05-20.404-1.05l-24.189 1.055-11.358 6.312-19.982 8.626-24.61 2.527-28.605 10.941-5.888 20.615 23.56 6.728 27.974-14.306 30.078-10.521-2.103 7.362s19.243 5.167 30.08.628c12.602-5.279 22.083-27.137 22.083-27.137l29.867-15.359 17.669 5.047c7.2 4.145 14.726 15.353 14.726 15.353s2.243 18.617-5.887 20.614c-7.792 1.915-15.147-13.88-15.147-13.88l-20.192 3.788s-.254 9.19-3.785 13.252l-14.303 5.47-12.408 15.568s-1.769 20.021-10.305 19.352c-8.021-.628-9.047-18.509-9.047-18.509l-13.252-3.785s-10.484 10.954-18.93 10.52l-8.834-2.523s-14.122-8.305-23.56-6.729c-9.214 1.539-11.592 8.951-19.771 13.465l-14.723 6.943s-15.664 4.142-24.82 8.837Z" fill="url('#paint0_linear_9065_1421')"/></g><defs><linearGradient id="paint0_linear_9065_1421" x1="55.82" y1="238.982" x2="306.107" y2="37.339" gradientUnits="userSpaceOnUse"><stop stop-color="#AACF6B"/><stop offset="1" stop-color="#C7D556"/></linearGradient><filter id="filter0_df_9065_1421" x=".178" y=".906" width="378.838" height="276.973" filterUnits="userSpaceOnUse" color-interpolation-filters="sRGB"><feFlood flood-opacity="0" result="BackgroundImageFix"/><feColorMatrix in="SourceAlpha" values="0 0 0 0 0 0 0 0 0 0 0 0 0 0 0 0 0 0 127 0" result="hardAlpha"/><feOffset dy="3.063"/><feGaussianBlur stdDeviation="19.142"/><feComposite in2="hardAlpha" operator="out"/><feColorMatrix values="0 0 0 0 0 0 0 0 0 0 0 0 0 0 0 0 0 0 0.25 0"/><feBlend in2="BackgroundImageFix" result="effect1_dropShadow_9065_1421"/><feBlend in="SourceGraphic" in2="effect1_dropShadow_9065_1421" result="shape"/><feGaussianBlur stdDeviation="1.914" result="effect2_foregroundBlur_9065_1421"/></filter></defs></svg>