<svg width="152" height="179" fill="none" xmlns="http://www.w3.org/2000/svg"><g filter="url('#filter0_df_9065_1417')"><path d="M111.752 112.734c5.116 8.115-3.644 24.293-3.644 24.293s-8.822-4.104-10.13-9.318l-.212-5.073s-6.591-3.06-10.799-5.054c-5.077-2.406-11.148-.918-12.966-6.235-1.628-4.763 4.35-7.02 4.579-12.05.182-4.016-.14-6.573-2.115-10.075-5.002-8.868-19.399 3.205-25.614-4.859-2.174-2.82-3.213-4.793-3.736-8.314-.677-4.56 3.74-7.104 2.482-11.539-1.403-4.946-7.696-4.173-9.69-8.912-1.474-3.507-1.82-6.033-.829-9.706 1.34-4.964 3.771-9.72 8.913-9.69 4.673.027 6.743 3.91 8.809 8.102 1.904 3.865-1.065 7.358 1.305 10.957 1.285 1.952 4.404 4.051 4.404 4.051s7.048-1.267 11.028.386c3.884 1.614 7.927 7.292 7.927 7.292s2.317 7.693 6.343 9.9c3.78 2.07 8.765-3.281 11.028.385 1.77 2.868-1.338 8.527-1.338 8.527l-4.736 18.409s14.655 1.647 18.991 8.523Z" fill="#86C23D"/></g><defs><filter id="filter0_df_9065_1417" x=".233" y=".981" width="151.406" height="177.391" filterUnits="userSpaceOnUse" color-interpolation-filters="sRGB"><feFlood flood-opacity="0" result="BackgroundImageFix"/><feColorMatrix in="SourceAlpha" values="0 0 0 0 0 0 0 0 0 0 0 0 0 0 0 0 0 0 127 0" result="hardAlpha"/><feOffset dy="3.063"/><feGaussianBlur stdDeviation="19.142"/><feComposite in2="hardAlpha" operator="out"/><feColorMatrix values="0 0 0 0 0 0 0 0 0 0 0 0 0 0 0 0 0 0 0.25 0"/><feBlend in2="BackgroundImageFix" result="effect1_dropShadow_9065_1417"/><feBlend in="SourceGraphic" in2="effect1_dropShadow_9065_1417" result="shape"/><feGaussianBlur stdDeviation="1.914" result="effect2_foregroundBlur_9065_1417"/></filter></defs></svg>