<svg width="45" height="49" fill="none" xmlns="http://www.w3.org/2000/svg"><path d="m1 27.516 5.078-7.334 3.949-15.797 4.231-1.692 2.116-.847L18.489 1l18.054 9.027 7.334 19.182-1.692 7.898-18.618 11.284L1 27.516Z" fill="#7BE34A" fill-opacity=".3"/><path d="M6.078 20.182 1 27.516l22.567 20.875M6.077 20.18l3.95-15.796 4.231-1.692m-8.18 17.489 5.641 2.257M23.567 48.39l18.618-11.284M23.567 48.391 11.719 22.439m30.466 14.668 1.692-7.898-7.334-19.182L18.489 1l-2.115.846m25.81 35.261L31.466 14.54 16.374 1.846M11.719 22.44l2.54-19.746m0 0 2.115-.847" stroke="#7BE34A" stroke-width=".766"/></svg>