<svg width="165" height="219" fill="none" xmlns="http://www.w3.org/2000/svg"><g filter="url('#filter0_df_9065_1418')"><path d="M39.48 83.142c-1.94-18.497 4.7-47.391 4.7-47.391s3.096 30.648 14.641 45.15c2.842 3.57 5.264 4.856 8.039 8.477 5.339 6.967 9.793 20.23 9.793 20.23l12.983 3.788c5.095 4.259 1.919 10.586 5.774 15.992 5.731 8.036 15.68 5.143 21.692 12.971 7.07 9.206 12.842 19.626 6.115 29.085-7.796 10.964-22.036 3.079-34.371-2.289-14.294-6.22-18.609-16.136-27.466-28.963-13.561-19.637-19.412-33.315-21.9-57.05Z" fill="url('#paint0_linear_9065_1418')"/></g><defs><linearGradient id="paint0_linear_9065_1418" x1="96.866" y1="91.308" x2="51.364" y2="134.458" gradientUnits="userSpaceOnUse"><stop stop-color="#38AB43"/><stop offset="1" stop-color="#3BB144"/></linearGradient><filter id="filter0_df_9065_1418" x=".841" y=".53" width="163.645" height="217.771" filterUnits="userSpaceOnUse" color-interpolation-filters="sRGB"><feFlood flood-opacity="0" result="BackgroundImageFix"/><feColorMatrix in="SourceAlpha" values="0 0 0 0 0 0 0 0 0 0 0 0 0 0 0 0 0 0 127 0" result="hardAlpha"/><feOffset dy="3.063"/><feGaussianBlur stdDeviation="19.142"/><feComposite in2="hardAlpha" operator="out"/><feColorMatrix values="0 0 0 0 0 0 0 0 0 0 0 0 0 0 0 0 0 0 0.25 0"/><feBlend in2="BackgroundImageFix" result="effect1_dropShadow_9065_1418"/><feBlend in="SourceGraphic" in2="effect1_dropShadow_9065_1418" result="shape"/><feGaussianBlur stdDeviation="1.914" result="effect2_foregroundBlur_9065_1418"/></filter></defs></svg>