<svg width="120" height="193" fill="none" xmlns="http://www.w3.org/2000/svg"><g filter="url('#filter0_df_9065_1416')"><path d="M55.81 49.68c2.508-9.258 20.346-13.763 20.346-13.763s2.951 9.272 0 13.764l-3.591 3.59s2.21 6.923 3.59 11.37c1.667 5.366 6.872 8.827 4.19 13.764-2.404 4.423-8.113 1.55-11.969 4.787-3.08 2.585-4.744 4.554-5.984 8.378-3.142 9.685 15.49 12.108 13.764 22.141-.604 3.508-1.353 5.61-3.591 8.378-2.898 3.585-7.761 2.057-10.173 5.984-2.69 4.382 2.139 8.49 0 13.166-1.583 3.459-3.208 5.424-6.583 7.181-4.56 2.374-9.706 3.804-13.165 0-3.144-3.459-1.687-7.61 0-11.969 1.556-4.018 6.136-4.197 7.181-8.378.567-2.267 0-5.984 0-5.984s-5.704-4.329-7.18-8.378c-1.443-3.951 0-10.771 0-10.771s4.093-6.913 2.991-11.37c-1.034-4.183-8.347-4.23-7.18-8.378.912-3.244 7.18-4.787 7.18-4.787l16.756-8.976s-8.708-11.902-6.583-19.748Z" fill="url('#paint0_linear_9065_1416')"/></g><defs><linearGradient id="paint0_linear_9065_1416" x1="59.714" y1="35.917" x2="59.714" y2="150.767" gradientUnits="userSpaceOnUse"><stop stop-color="#38AB43"/><stop offset="1" stop-color="#3BB144"/></linearGradient><filter id="filter0_df_9065_1416" x=".046" y=".697" width="119.336" height="191.416" filterUnits="userSpaceOnUse" color-interpolation-filters="sRGB"><feFlood flood-opacity="0" result="BackgroundImageFix"/><feColorMatrix in="SourceAlpha" values="0 0 0 0 0 0 0 0 0 0 0 0 0 0 0 0 0 0 127 0" result="hardAlpha"/><feOffset dy="3.063"/><feGaussianBlur stdDeviation="19.142"/><feComposite in2="hardAlpha" operator="out"/><feColorMatrix values="0 0 0 0 0 0 0 0 0 0 0 0 0 0 0 0 0 0 0.25 0"/><feBlend in2="BackgroundImageFix" result="effect1_dropShadow_9065_1416"/><feBlend in="SourceGraphic" in2="effect1_dropShadow_9065_1416" result="shape"/><feGaussianBlur stdDeviation="1.914" result="effect2_foregroundBlur_9065_1416"/></filter></defs></svg>