<svg width="315" height="179" fill="none" xmlns="http://www.w3.org/2000/svg"><g filter="url('#filter0_df_9065_1423')"><path d="M64.596 133.418c8.547 3.229 17.25 6.761 23.396 0 5.587-6.145 0-21.268 0-21.268s11.035-2.899 17.014 0c8.356 4.051 1.683 18.799 10.635 21.268 10.772 2.972 8.573-17.638 19.141-21.268 7.07-2.429 19.142 0 19.142 0s14.995 6.22 19.141 0c2.765-4.147 0-12.761 0-12.761l23.396-12.761h14.888l23.395-17.015h10.634s22.753-1.923 27.649-12.761c3.078-6.812 5.901-14.552 0-19.142-4.589-3.57-9.216-1.28-14.888 0-11.515 2.6-12.108 15.683-23.395 19.142-8.735 2.677-14.934-3.447-23.395 0-7.092 2.89-14.888 12.761-14.888 12.761h-10.634c-7.939 2.443-12.762 17.015-12.762 17.015l-19.141-17.015h-19.142c-4.414 4.966 4.415 12.049 0 17.015-4.966 5.587-19.141 0-19.141 0h-27.65c-10.072 2.619-23.395 12.76-23.395 12.76s-14.225-4.401-21.268 0c-13.29 8.307 6.608 28.493 21.268 34.03Z" fill="#86C23D"/></g><defs><filter id="filter0_df_9065_1423" x=".674" y=".579" width="314.082" height="178.042" filterUnits="userSpaceOnUse" color-interpolation-filters="sRGB"><feFlood flood-opacity="0" result="BackgroundImageFix"/><feColorMatrix in="SourceAlpha" values="0 0 0 0 0 0 0 0 0 0 0 0 0 0 0 0 0 0 127 0" result="hardAlpha"/><feOffset dy="3.063"/><feGaussianBlur stdDeviation="19.142"/><feComposite in2="hardAlpha" operator="out"/><feColorMatrix values="0 0 0 0 0 0 0 0 0 0 0 0 0 0 0 0 0 0 0.25 0"/><feBlend in2="BackgroundImageFix" result="effect1_dropShadow_9065_1423"/><feBlend in="SourceGraphic" in2="effect1_dropShadow_9065_1423" result="shape"/><feGaussianBlur stdDeviation="1.914" result="effect2_foregroundBlur_9065_1423"/></filter></defs></svg>