<svg width="331" height="332" fill="none" xmlns="http://www.w3.org/2000/svg"><g filter="url('#filter0_df_9065_1420')"><path d="M228.451 150.536c5.259-4.92 5.248-12.105 12.251-13.782 4.4-1.054 11.485 1.531 11.485 1.531s2.306-7.475 3.828-12.251c3.447-10.81 7.122-16.407 9.188-27.564 2.723-14.7-4.365-23.984 0-38.283 3.206-10.5 2.817-25.036 13.782-24.501 10.685.521 10.719 13.782 12.251 24.501 1.531 10.72 0 38.284 0 38.284-4.594 6.125-16.845 21.438-26.033 27.563-7.35 4.901-3.062 28.585 0 39.815 0 0-5.653-.615-9.188 0-18.073 3.142-5.913 28.655-15.313 44.408-4.168 6.985-6.717 10.884-12.251 16.845-7.244 7.804-11.008 14.705-21.438 16.845-4.687.961-12.251 0-12.251 0s-15.095 23.928-30.626 30.626c-6.793 2.93-18.376 4.594-18.376 4.594l-29.096 10.72-13.782-10.72c.429-7.967 19.908-4.594 19.908-4.594l22.97-7.656 9.188-9.188 16.844-13.782 22.97-9.188 24.501-18.376v-21.439h-24.501l-22.97 21.439-26.032 18.376v-7.657s-19.922.316-29.096 7.657c-10.668 8.536-13.782 32.158-13.782 32.158l-24.5 22.97H60.004c-8.061-2.01-18.376-10.72-18.376-10.72s-7.269-17.285 0-21.438c6.966-3.981 18.376 9.188 18.376 9.188l18.376-9.188s-2.28-8.907 0-13.782l12.25-9.188 7.657-18.376s-3.797-19.738 4.594-21.439c7.886-1.598 13.782 15.313 13.782 15.313h13.782s7.073-13.411 15.314-15.313h9.188s15.859 4.107 24.501 0c8.437-4.01 8.688-11.79 15.313-18.376l12.251-10.719s13.925-8.285 21.438-15.313Z" fill="url('#paint0_linear_9065_1420')"/></g><defs><linearGradient id="paint0_linear_9065_1420" x1="268.098" y1="35.672" x2="82.807" y2="298.294" gradientUnits="userSpaceOnUse"><stop stop-color="#C7D556"/><stop offset="1" stop-color="#AACF6B"/></linearGradient><filter id="filter0_df_9065_1420" x=".115" y=".451" width="330.084" height="330.781" filterUnits="userSpaceOnUse" color-interpolation-filters="sRGB"><feFlood flood-opacity="0" result="BackgroundImageFix"/><feColorMatrix in="SourceAlpha" values="0 0 0 0 0 0 0 0 0 0 0 0 0 0 0 0 0 0 127 0" result="hardAlpha"/><feOffset dy="3.063"/><feGaussianBlur stdDeviation="19.142"/><feComposite in2="hardAlpha" operator="out"/><feColorMatrix values="0 0 0 0 0 0 0 0 0 0 0 0 0 0 0 0 0 0 0.25 0"/><feBlend in2="BackgroundImageFix" result="effect1_dropShadow_9065_1420"/><feBlend in="SourceGraphic" in2="effect1_dropShadow_9065_1420" result="shape"/><feGaussianBlur stdDeviation="1.914" result="effect2_foregroundBlur_9065_1420"/></filter></defs></svg>