<svg width="318" height="173" fill="none" xmlns="http://www.w3.org/2000/svg"><g filter="url('#filter0_df_9065_1424')"><path d="M267.949 90.784c-5.955-6.93-11.899-14.2-20.533-11.213-7.85 2.716-10.194 18.667-10.194 18.667s-11.075-2.745-14.933-8.155c-5.392-7.56 7.533-17.306.86-23.764-8.03-7.77-15.978 11.371-26.993 9.492-7.369-1.257-20.388-38.28-20.388-38.28s-10.179-3.47-16.799 0c-4.414 2.315-8.645 20.554-8.645 20.554L129.791 68.65l-13.067-7.135-28.688 3.72-9.333-5.097S57.812 50.92 48.32 58.085c-5.966 4.504-12.153 9.944-9.174 16.8 2.317 5.332 7.475 5.541 13.067 7.135 11.352 3.237 18.143-7.96 29.707-5.586 8.95 1.837 11.455 10.183 20.533 11.213 7.609.863 19.183-4.064 19.183-4.064l9.333 5.096c8.138 1.662 19.355-8.817 19.355-8.817l16.576-4.977 8.868 23.326c-4.434-19.13 1.901 2.243 8.155 0 7.037-2.523 16.8 9.174 16.8 9.174l24.266 13.252c10.096 2.529 26.65.014 26.65.014s10.375 10.681 18.666 10.193c15.645-.92 7.857-28.173-2.356-40.06Z" fill="#86C23D"/></g><defs><filter id="filter0_df_9065_1424" x=".09" y=".769" width="317.372" height="171.438" filterUnits="userSpaceOnUse" color-interpolation-filters="sRGB"><feFlood flood-opacity="0" result="BackgroundImageFix"/><feColorMatrix in="SourceAlpha" values="0 0 0 0 0 0 0 0 0 0 0 0 0 0 0 0 0 0 127 0" result="hardAlpha"/><feOffset dy="3.063"/><feGaussianBlur stdDeviation="19.142"/><feComposite in2="hardAlpha" operator="out"/><feColorMatrix values="0 0 0 0 0 0 0 0 0 0 0 0 0 0 0 0 0 0 0.25 0"/><feBlend in2="BackgroundImageFix" result="effect1_dropShadow_9065_1424"/><feBlend in="SourceGraphic" in2="effect1_dropShadow_9065_1424" result="shape"/><feGaussianBlur stdDeviation="1.914" result="effect2_foregroundBlur_9065_1424"/></filter></defs></svg>