<svg width="217" height="136" fill="none" xmlns="http://www.w3.org/2000/svg"><g filter="url('#filter0_df_9065_1419')"><path d="M78.5 37.96C62.004 40.79 38.59 53.586 38.59 53.586s27.307-4.79 42.685 1.677c3.785 1.591 5.49 3.376 9.304 4.897 7.338 2.927 19.914 3.552 19.914 3.552l6.447 10.325c4.931 3.376 9.639-.918 15.262 1.103 8.36 3.006 8.279 12.332 16.526 15.632 9.699 3.88 20.134 6.34 26.689-1.794 7.597-9.427-2.705-19.842-10.363-29.22-8.873-10.866-18.516-12.187-31.788-16.733-20.319-6.962-33.595-8.696-54.764-5.065Z" fill="#3AAF44"/></g><defs><filter id="filter0_df_9065_1419" x=".306" y=".891" width="216.057" height="134.838" filterUnits="userSpaceOnUse" color-interpolation-filters="sRGB"><feFlood flood-opacity="0" result="BackgroundImageFix"/><feColorMatrix in="SourceAlpha" values="0 0 0 0 0 0 0 0 0 0 0 0 0 0 0 0 0 0 127 0" result="hardAlpha"/><feOffset dy="3.063"/><feGaussianBlur stdDeviation="19.142"/><feComposite in2="hardAlpha" operator="out"/><feColorMatrix values="0 0 0 0 0 0 0 0 0 0 0 0 0 0 0 0 0 0 0.25 0"/><feBlend in2="BackgroundImageFix" result="effect1_dropShadow_9065_1419"/><feBlend in="SourceGraphic" in2="effect1_dropShadow_9065_1419" result="shape"/><feGaussianBlur stdDeviation="1.914" result="effect2_foregroundBlur_9065_1419"/></filter></defs></svg>