<svg width="228" height="166" fill="none" xmlns="http://www.w3.org/2000/svg"><g filter="url('#filter0_df_9065_1422')"><path d="M61.484 74.886V61.104s-30.41-14.598-21.439-22.97c6.12-5.713 13.089-.614 21.439 0 16.496 1.212 26.375 2.154 41.346 9.188 9.008 4.233 21.438 13.782 21.438 13.782l18.376 13.782h13.782s10.741-2.454 16.845 0c7.886 3.17 13.782 16.845 13.782 16.845s3.805 9.976 0 13.781c-3.806 3.806-13.782 0-13.782 0H131.925s2.304 8.918 0 13.782c-4.864 10.269-29.095 0-29.095 0l-13.782-7.656c-4.39-6.416 0-19.907 0-19.907s-12.159 3.583-18.376 0c-6.492-3.743-9.188-16.845-9.188-16.845Z" fill="url('#paint0_linear_9065_1422')"/></g><defs><linearGradient id="paint0_linear_9065_1422" x1="174.618" y1="35.453" x2="126.297" y2="152.254" gradientUnits="userSpaceOnUse"><stop stop-color="#C7D556"/><stop offset="1" stop-color="#AACF6B"/></linearGradient><filter id="filter0_df_9065_1422" x=".106" y=".233" width="226.921" height="164.972" filterUnits="userSpaceOnUse" color-interpolation-filters="sRGB"><feFlood flood-opacity="0" result="BackgroundImageFix"/><feColorMatrix in="SourceAlpha" values="0 0 0 0 0 0 0 0 0 0 0 0 0 0 0 0 0 0 127 0" result="hardAlpha"/><feOffset dy="3.063"/><feGaussianBlur stdDeviation="19.142"/><feComposite in2="hardAlpha" operator="out"/><feColorMatrix values="0 0 0 0 0 0 0 0 0 0 0 0 0 0 0 0 0 0 0.25 0"/><feBlend in2="BackgroundImageFix" result="effect1_dropShadow_9065_1422"/><feBlend in="SourceGraphic" in2="effect1_dropShadow_9065_1422" result="shape"/><feGaussianBlur stdDeviation="1.914" result="effect2_foregroundBlur_9065_1422"/></filter></defs></svg>