<svg width="45" height="49" viewBox="0 0 45 49" fill="none" xmlns="http://www.w3.org/2000/svg">
<path d="M1 27.5162L6.07756 20.1819L10.0268 4.38504L14.2581 2.69252L16.3737 1.84626L18.4894 1L36.5429 10.0268L43.8772 29.2087L42.1847 37.1071L23.5669 48.3906L1 27.5162Z" fill="#7BE34A" fill-opacity="0.3"/>
<path d="M6.07756 20.1819L1 27.5162L23.5669 48.3906M6.07756 20.1819L10.0268 4.38504L14.2581 2.69252M6.07756 20.1819L11.7193 22.4386M23.5669 48.3906L42.1847 37.1071M23.5669 48.3906L11.7193 22.4386M42.1847 37.1071L43.8772 29.2087L36.5429 10.0268L18.4894 1L16.3737 1.84626M42.1847 37.1071L31.4654 14.5402L16.3737 1.84626M11.7193 22.4386L14.2581 2.69252M14.2581 2.69252L16.3737 1.84626" stroke="#7BE34A" stroke-width="0.765664"/>
</svg>
