<svg width="152" height="179" viewBox="0 0 152 179" fill="none" xmlns="http://www.w3.org/2000/svg">
<g filter="url(#filter0_df_9065_1417)">
<path d="M111.752 112.734C116.868 120.849 108.108 137.027 108.108 137.027C108.108 137.027 99.2861 132.923 97.9782 127.709L97.7662 122.636C97.7662 122.636 91.175 119.576 86.9671 117.582C81.8897 115.176 75.8185 116.664 74.0011 111.347C72.3727 106.584 78.3516 104.327 78.5796 99.2977C78.7618 95.2812 78.4395 92.7239 76.4645 89.2218C71.4632 80.3536 57.0662 92.4268 50.8506 84.3631C48.6774 81.5439 47.6375 79.57 47.115 76.049C46.4383 71.4897 50.8553 68.9446 49.5973 64.5103C48.1941 59.5642 41.9007 60.3372 39.9075 55.598C38.4326 52.0913 38.0873 49.5648 39.0783 45.8919C40.4177 40.9281 42.8494 36.1722 47.9906 36.2021C52.6645 36.2292 54.7336 40.1116 56.7995 44.3042C58.7042 48.1695 55.7351 51.6617 58.1045 55.261C59.3895 57.213 62.509 59.312 62.509 59.312C62.509 59.312 69.5571 58.0449 73.5365 59.6982C77.4211 61.3121 81.4645 66.9901 81.4645 66.9901C81.4645 66.9901 83.7811 74.6826 87.8074 76.8893C91.5863 78.9603 96.5716 73.6086 98.8349 77.2754C100.605 80.1435 97.4972 85.8016 97.4972 85.8016L92.7609 104.211C92.7609 104.211 107.416 105.858 111.752 112.734Z" fill="#86C23D"/>
</g>
<defs>
<filter id="filter0_df_9065_1417" x="0.232861" y="0.981354" width="151.406" height="177.391" filterUnits="userSpaceOnUse" color-interpolation-filters="sRGB">
<feFlood flood-opacity="0" result="BackgroundImageFix"/>
<feColorMatrix in="SourceAlpha" type="matrix" values="0 0 0 0 0 0 0 0 0 0 0 0 0 0 0 0 0 0 127 0" result="hardAlpha"/>
<feOffset dy="3.06266"/>
<feGaussianBlur stdDeviation="19.1416"/>
<feComposite in2="hardAlpha" operator="out"/>
<feColorMatrix type="matrix" values="0 0 0 0 0 0 0 0 0 0 0 0 0 0 0 0 0 0 0.25 0"/>
<feBlend mode="normal" in2="BackgroundImageFix" result="effect1_dropShadow_9065_1417"/>
<feBlend mode="normal" in="SourceGraphic" in2="effect1_dropShadow_9065_1417" result="shape"/>
<feGaussianBlur stdDeviation="1.91416" result="effect2_foregroundBlur_9065_1417"/>
</filter>
</defs>
</svg>
