<svg width="331" height="332" viewBox="0 0 331 332" fill="none" xmlns="http://www.w3.org/2000/svg">
<g filter="url(#filter0_df_9065_1420)">
<path d="M228.451 150.536C233.71 145.616 233.699 138.431 240.702 136.754C245.102 135.7 252.187 138.285 252.187 138.285C252.187 138.285 254.493 130.81 256.015 126.034C259.462 115.224 263.137 109.627 265.203 98.4705C267.926 83.7699 260.838 74.4863 265.203 60.1873C268.409 49.6875 268.02 35.1512 278.985 35.686C289.67 36.2073 289.704 49.468 291.236 60.1873C292.767 70.9066 291.236 98.4705 291.236 98.4705C286.642 104.596 274.391 119.909 265.203 126.034C257.853 130.935 262.141 154.619 265.203 165.849C265.203 165.849 259.55 165.234 256.015 165.849C237.942 168.991 250.102 194.504 240.702 210.257C236.534 217.242 233.985 221.141 228.451 227.102C221.207 234.906 217.443 241.807 207.013 243.947C202.326 244.908 194.762 243.947 194.762 243.947C194.762 243.947 179.667 267.875 164.136 274.573C157.343 277.503 145.76 279.167 145.76 279.167L116.664 289.887L102.882 279.167C103.311 271.2 122.79 274.573 122.79 274.573L145.76 266.917L154.948 257.729L171.792 243.947L194.762 234.759L219.263 216.383V194.944H194.762L171.792 216.383L145.76 234.759V227.102C145.76 227.102 125.838 227.418 116.664 234.759C105.996 243.295 102.882 266.917 102.882 266.917L78.3811 289.887H60.0052C51.9439 287.877 41.6292 279.167 41.6292 279.167C41.6292 279.167 34.3601 261.882 41.6292 257.729C48.5954 253.748 60.0052 266.917 60.0052 266.917L78.3811 257.729C78.3811 257.729 76.1016 248.822 78.3811 243.947L90.6318 234.759L98.2884 216.383C98.2884 216.383 94.4907 196.645 102.882 194.944C110.768 193.346 116.664 210.257 116.664 210.257H130.446C130.446 210.257 137.519 196.846 145.76 194.944H154.948C154.948 194.944 170.807 199.051 179.449 194.944C187.886 190.934 188.137 183.154 194.762 176.568L207.013 165.849C207.013 165.849 220.938 157.564 228.451 150.536Z" fill="url(#paint0_linear_9065_1420)"/>
</g>
<defs>
<filter id="filter0_df_9065_1420" x="0.115292" y="0.451142" width="330.084" height="330.781" filterUnits="userSpaceOnUse" color-interpolation-filters="sRGB">
<feFlood flood-opacity="0" result="BackgroundImageFix"/>
<feColorMatrix in="SourceAlpha" type="matrix" values="0 0 0 0 0 0 0 0 0 0 0 0 0 0 0 0 0 0 127 0" result="hardAlpha"/>
<feOffset dy="3.06266"/>
<feGaussianBlur stdDeviation="19.1416"/>
<feComposite in2="hardAlpha" operator="out"/>
<feColorMatrix type="matrix" values="0 0 0 0 0 0 0 0 0 0 0 0 0 0 0 0 0 0 0.25 0"/>
<feBlend mode="normal" in2="BackgroundImageFix" result="effect1_dropShadow_9065_1420"/>
<feBlend mode="normal" in="SourceGraphic" in2="effect1_dropShadow_9065_1420" result="shape"/>
<feGaussianBlur stdDeviation="1.91416" result="effect2_foregroundBlur_9065_1420"/>
</filter>
<linearGradient id="paint0_linear_9065_1420" x1="268.098" y1="35.6717" x2="82.807" y2="298.294" gradientUnits="userSpaceOnUse">
<stop stop-color="#C7D556"/>
<stop offset="1" stop-color="#AACF6B"/>
</linearGradient>
</defs>
</svg>
