<svg width="165" height="219" viewBox="0 0 165 219" fill="none" xmlns="http://www.w3.org/2000/svg">
<g filter="url(#filter0_df_9065_1418)">
<path d="M39.4795 83.1423C37.5404 64.6452 44.1801 35.7506 44.1801 35.7506C44.1801 35.7506 47.2763 66.3989 58.821 80.9009C61.6625 84.4703 64.0847 85.7566 66.8598 89.3779C72.1987 96.3449 76.6526 109.608 76.6526 109.608L89.6364 113.396C94.7307 117.655 91.5548 123.982 95.4098 129.388C101.141 137.424 111.09 134.531 117.102 142.359C124.172 151.565 129.944 161.985 123.217 171.444C115.421 182.408 101.181 174.523 88.8456 169.155C74.5525 162.935 70.2374 153.019 61.3797 140.192C47.8189 120.555 41.9677 106.877 39.4795 83.1423Z" fill="url(#paint0_linear_9065_1418)"/>
</g>
<defs>
<filter id="filter0_df_9065_1418" x="0.841427" y="0.530091" width="163.645" height="217.771" filterUnits="userSpaceOnUse" color-interpolation-filters="sRGB">
<feFlood flood-opacity="0" result="BackgroundImageFix"/>
<feColorMatrix in="SourceAlpha" type="matrix" values="0 0 0 0 0 0 0 0 0 0 0 0 0 0 0 0 0 0 127 0" result="hardAlpha"/>
<feOffset dy="3.06266"/>
<feGaussianBlur stdDeviation="19.1416"/>
<feComposite in2="hardAlpha" operator="out"/>
<feColorMatrix type="matrix" values="0 0 0 0 0 0 0 0 0 0 0 0 0 0 0 0 0 0 0.25 0"/>
<feBlend mode="normal" in2="BackgroundImageFix" result="effect1_dropShadow_9065_1418"/>
<feBlend mode="normal" in="SourceGraphic" in2="effect1_dropShadow_9065_1418" result="shape"/>
<feGaussianBlur stdDeviation="1.91416" result="effect2_foregroundBlur_9065_1418"/>
</filter>
<linearGradient id="paint0_linear_9065_1418" x1="96.8657" y1="91.3082" x2="51.3635" y2="134.458" gradientUnits="userSpaceOnUse">
<stop stop-color="#38AB43"/>
<stop offset="1" stop-color="#3BB144"/>
</linearGradient>
</defs>
</svg>
