<svg width="120" height="193" viewBox="0 0 120 193" fill="none" xmlns="http://www.w3.org/2000/svg">
<g filter="url(#filter0_df_9065_1416)">
<path d="M55.8093 49.6809C58.3179 40.4217 76.1555 35.9173 76.1555 35.9173C76.1555 35.9173 79.1074 45.189 76.1555 49.6809L72.565 53.2714C72.565 53.2714 74.7744 60.1945 76.1555 64.6413C77.822 70.0069 83.0271 73.4682 80.3444 78.4049C77.9409 82.828 72.2318 79.9558 68.3761 83.1922C65.2965 85.7772 63.6325 87.7456 62.3919 91.5701C59.2505 101.255 77.8828 103.678 76.1555 113.711C75.5516 117.219 74.8028 119.321 72.565 122.089C69.6674 125.674 64.804 124.146 62.3919 128.073C59.7014 132.455 64.5307 136.563 62.3919 141.239C60.8093 144.698 59.1836 146.663 55.8093 148.42C51.2492 150.794 46.1026 152.224 42.6442 148.42C39.5002 144.961 40.9569 140.81 42.6442 136.451C44.1998 132.433 48.7801 132.254 49.8252 128.073C50.392 125.806 49.8252 122.089 49.8252 122.089C49.8252 122.089 44.1212 117.76 42.6442 113.711C41.2023 109.76 42.6442 102.94 42.6442 102.94C42.6442 102.94 46.7378 96.0274 45.6363 91.5701C44.6024 87.3868 37.2886 87.3404 38.4553 83.1922C39.3678 79.9477 45.6363 78.4049 45.6363 78.4049L62.3919 69.4286C62.3919 69.4286 53.6836 57.5272 55.8093 49.6809Z" fill="url(#paint0_linear_9065_1416)"/>
</g>
<defs>
<filter id="filter0_df_9065_1416" x="0.0463829" y="0.696747" width="119.336" height="191.416" filterUnits="userSpaceOnUse" color-interpolation-filters="sRGB">
<feFlood flood-opacity="0" result="BackgroundImageFix"/>
<feColorMatrix in="SourceAlpha" type="matrix" values="0 0 0 0 0 0 0 0 0 0 0 0 0 0 0 0 0 0 127 0" result="hardAlpha"/>
<feOffset dy="3.06266"/>
<feGaussianBlur stdDeviation="19.1416"/>
<feComposite in2="hardAlpha" operator="out"/>
<feColorMatrix type="matrix" values="0 0 0 0 0 0 0 0 0 0 0 0 0 0 0 0 0 0 0.25 0"/>
<feBlend mode="normal" in2="BackgroundImageFix" result="effect1_dropShadow_9065_1416"/>
<feBlend mode="normal" in="SourceGraphic" in2="effect1_dropShadow_9065_1416" result="shape"/>
<feGaussianBlur stdDeviation="1.91416" result="effect2_foregroundBlur_9065_1416"/>
</filter>
<linearGradient id="paint0_linear_9065_1416" x1="59.7143" y1="35.9173" x2="59.7143" y2="150.767" gradientUnits="userSpaceOnUse">
<stop stop-color="#38AB43"/>
<stop offset="1" stop-color="#3BB144"/>
</linearGradient>
</defs>
</svg>
