<svg width="380" height="278" viewBox="0 0 380 278" fill="none" xmlns="http://www.w3.org/2000/svg">
<g filter="url(#filter0_df_9065_1421)">
<path d="M125.485 139.422C119.078 142.708 117.116 149.62 109.921 149.31C105.4 149.115 99.2982 144.683 99.2982 144.683C99.2982 144.683 95.0285 151.238 92.2529 155.412C85.9698 164.86 80.8993 169.232 75.8488 179.393C69.1942 192.781 73.46 203.654 65.3358 216.204C59.3701 225.42 55.752 239.504 45.3553 235.979C35.2242 232.543 38.8328 219.783 40.304 209.055C41.7752 198.328 50.817 172.244 50.817 172.244C56.9165 167.616 72.9014 156.255 83.4182 152.889C91.8316 150.195 94.2128 126.244 94.3518 114.605C94.3518 114.605 99.6185 116.748 103.186 117.128C121.428 119.07 116.741 91.198 130.106 78.6318C136.032 73.06 139.553 70.0115 146.512 65.799C155.62 60.2847 161.135 54.6823 171.752 55.4893C176.522 55.8519 183.531 58.8534 183.531 58.8534C183.531 58.8534 204.617 39.9905 221.391 37.8147C228.727 36.8632 240.322 38.4436 240.322 38.4436L271.242 36.1264L281.551 50.2182C278.951 57.7613 261.147 49.1688 261.147 49.1688L236.958 50.2233L225.6 56.5349L205.618 65.1613L181.008 67.6882L152.403 78.6293L146.515 99.2437L170.075 105.972L198.049 91.6655L228.127 81.1449L226.024 88.5071C226.024 88.5071 245.267 93.674 256.104 89.1348C268.706 83.8561 278.187 61.9979 278.187 61.9979L308.054 46.6394L325.723 51.6857C332.923 55.8315 340.449 67.0391 340.449 67.0391C340.449 67.0391 342.692 85.6556 334.562 87.6535C326.77 89.5681 319.415 73.7725 319.415 73.7725L299.223 77.561C299.223 77.561 298.969 86.7509 295.438 90.8131L281.135 96.2836L268.727 111.851C268.727 111.851 266.958 131.872 258.422 131.203C250.401 130.575 249.375 112.694 249.375 112.694L236.123 108.909C236.123 108.909 225.639 119.863 217.193 119.429L208.359 116.906C208.359 116.906 194.237 108.601 184.799 110.177C175.585 111.716 173.207 119.128 165.028 123.642L150.305 130.585C150.305 130.585 134.641 134.727 125.485 139.422Z" fill="url(#paint0_linear_9065_1421)"/>
</g>
<defs>
<filter id="filter0_df_9065_1421" x="0.178265" y="0.905792" width="378.838" height="276.973" filterUnits="userSpaceOnUse" color-interpolation-filters="sRGB">
<feFlood flood-opacity="0" result="BackgroundImageFix"/>
<feColorMatrix in="SourceAlpha" type="matrix" values="0 0 0 0 0 0 0 0 0 0 0 0 0 0 0 0 0 0 127 0" result="hardAlpha"/>
<feOffset dy="3.06266"/>
<feGaussianBlur stdDeviation="19.1416"/>
<feComposite in2="hardAlpha" operator="out"/>
<feColorMatrix type="matrix" values="0 0 0 0 0 0 0 0 0 0 0 0 0 0 0 0 0 0 0.25 0"/>
<feBlend mode="normal" in2="BackgroundImageFix" result="effect1_dropShadow_9065_1421"/>
<feBlend mode="normal" in="SourceGraphic" in2="effect1_dropShadow_9065_1421" result="shape"/>
<feGaussianBlur stdDeviation="1.91416" result="effect2_foregroundBlur_9065_1421"/>
</filter>
<linearGradient id="paint0_linear_9065_1421" x1="55.8202" y1="238.982" x2="306.107" y2="37.3393" gradientUnits="userSpaceOnUse">
<stop stop-color="#AACF6B"/>
<stop offset="1" stop-color="#C7D556"/>
</linearGradient>
</defs>
</svg>
