<svg width="318" height="173" viewBox="0 0 318 173" fill="none" xmlns="http://www.w3.org/2000/svg">
<g filter="url(#filter0_df_9065_1424)">
<path d="M267.949 90.7843C261.994 83.8545 256.05 76.5835 247.416 79.5712C239.566 82.2873 237.222 98.2376 237.222 98.2376C237.222 98.2376 226.147 95.4925 222.289 90.0826C216.897 82.5221 229.822 72.7772 223.149 66.3194C215.119 58.5484 207.171 77.6905 196.156 75.8115C188.787 74.5544 175.768 37.5319 175.768 37.5319C175.768 37.5319 165.589 34.0605 158.969 37.5319C154.555 39.8463 150.324 58.0851 150.324 58.0851L129.791 68.6494L116.724 61.5138L88.0362 65.2339L78.703 60.137C78.703 60.137 57.8116 50.9198 48.3204 58.0851C42.3544 62.5891 36.167 68.0289 39.1461 74.8849C41.4631 80.2173 46.6213 80.4262 52.2126 82.0204C63.5649 85.2574 70.3562 74.0604 81.92 76.4338C90.8698 78.2707 93.3748 86.6169 102.453 87.6468C110.062 88.51 121.636 83.5826 121.636 83.5826L130.969 88.6794C139.107 90.3405 150.324 79.8625 150.324 79.8625L166.9 74.8849L175.768 98.2112C171.334 79.0814 177.669 100.454 183.923 98.2112C190.96 95.6879 200.723 107.385 200.723 107.385L224.989 120.637C235.085 123.166 251.639 120.651 251.639 120.651C251.639 120.651 262.014 131.332 270.305 130.844C285.95 129.924 278.162 102.671 267.949 90.7843Z" fill="#86C23D"/>
</g>
<defs>
<filter id="filter0_df_9065_1424" x="0.0903511" y="0.768524" width="317.372" height="171.438" filterUnits="userSpaceOnUse" color-interpolation-filters="sRGB">
<feFlood flood-opacity="0" result="BackgroundImageFix"/>
<feColorMatrix in="SourceAlpha" type="matrix" values="0 0 0 0 0 0 0 0 0 0 0 0 0 0 0 0 0 0 127 0" result="hardAlpha"/>
<feOffset dy="3.06266"/>
<feGaussianBlur stdDeviation="19.1416"/>
<feComposite in2="hardAlpha" operator="out"/>
<feColorMatrix type="matrix" values="0 0 0 0 0 0 0 0 0 0 0 0 0 0 0 0 0 0 0.25 0"/>
<feBlend mode="normal" in2="BackgroundImageFix" result="effect1_dropShadow_9065_1424"/>
<feBlend mode="normal" in="SourceGraphic" in2="effect1_dropShadow_9065_1424" result="shape"/>
<feGaussianBlur stdDeviation="1.91416" result="effect2_foregroundBlur_9065_1424"/>
</filter>
</defs>
</svg>
