<svg width="315" height="179" viewBox="0 0 315 179" fill="none" xmlns="http://www.w3.org/2000/svg">
<g filter="url(#filter0_df_9065_1423)">
<path d="M64.5964 133.418C73.1435 136.647 81.8459 140.179 87.9917 133.418C93.5788 127.273 87.9917 112.15 87.9917 112.15C87.9917 112.15 99.0275 109.251 105.006 112.15C113.362 116.201 106.689 130.949 115.641 133.418C126.413 136.39 124.214 115.78 134.782 112.15C141.852 109.721 153.924 112.15 153.924 112.15C153.924 112.15 168.919 118.37 173.065 112.15C175.83 108.003 173.065 99.3889 173.065 99.3889L196.461 86.6279H211.349L234.744 69.6131H245.378C245.378 69.6131 268.131 67.6897 273.027 56.852C276.105 50.0396 278.928 42.2998 273.027 37.7104C268.438 34.1409 263.811 36.4298 258.139 37.7104C246.624 40.3106 246.031 53.3927 234.744 56.852C226.009 59.5294 219.81 53.4049 211.349 56.852C204.257 59.7412 196.461 69.6131 196.461 69.6131H185.827C177.888 72.0557 173.065 86.6279 173.065 86.6279L153.924 69.6131H134.782C130.368 74.5794 139.197 81.6616 134.782 86.6279C129.816 92.2149 115.641 86.6279 115.641 86.6279H87.9917C77.9194 89.2467 64.5964 99.3889 64.5964 99.3889C64.5964 99.3889 50.3713 94.9868 43.3279 99.3889C30.0386 107.695 49.9357 127.881 64.5964 133.418Z" fill="#86C23D"/>
</g>
<defs>
<filter id="filter0_df_9065_1423" x="0.674191" y="0.578949" width="314.082" height="178.042" filterUnits="userSpaceOnUse" color-interpolation-filters="sRGB">
<feFlood flood-opacity="0" result="BackgroundImageFix"/>
<feColorMatrix in="SourceAlpha" type="matrix" values="0 0 0 0 0 0 0 0 0 0 0 0 0 0 0 0 0 0 127 0" result="hardAlpha"/>
<feOffset dy="3.06266"/>
<feGaussianBlur stdDeviation="19.1416"/>
<feComposite in2="hardAlpha" operator="out"/>
<feColorMatrix type="matrix" values="0 0 0 0 0 0 0 0 0 0 0 0 0 0 0 0 0 0 0.25 0"/>
<feBlend mode="normal" in2="BackgroundImageFix" result="effect1_dropShadow_9065_1423"/>
<feBlend mode="normal" in="SourceGraphic" in2="effect1_dropShadow_9065_1423" result="shape"/>
<feGaussianBlur stdDeviation="1.91416" result="effect2_foregroundBlur_9065_1423"/>
</filter>
</defs>
</svg>
